<mxfile host="app.diagrams.net" modified="2023-11-19T11:30:20.622Z" agent="Mozilla/5.0 (Windows NT 10.0; Win64; x64) AppleWebKit/537.36 (KHTML, like Gecko) Chrome/119.0.0.0 Safari/537.36" etag="goz4aG1r-YopnJIayA3v" version="22.1.3" type="github">
  <diagram name="第 1 页" id="ynowFRM3JxVonlPQYkHA">
    <mxGraphModel dx="1728" dy="925" grid="1" gridSize="10" guides="1" tooltips="1" connect="1" arrows="1" fold="1" page="1" pageScale="1" pageWidth="1169" pageHeight="827" math="0" shadow="0">
      <root>
        <mxCell id="0" />
        <mxCell id="1" parent="0" />
        <mxCell id="O1uoHhi7obcJZDUWwfoy-80" value="&lt;font style=&quot;font-size: 8px;&quot; face=&quot;Times New Roman&quot;&gt;&lt;b&gt;ap-southest-1&lt;/b&gt;&lt;/font&gt;" style="sketch=0;outlineConnect=0;html=1;whiteSpace=wrap;fontSize=12;fontStyle=0;shape=mxgraph.aws4.group;grIcon=mxgraph.aws4.group_region;strokeColor=#6c8ebf;fillColor=#dae8fc;verticalAlign=top;align=left;spacingLeft=30;dashed=1;" vertex="1" parent="1">
          <mxGeometry x="798" y="270" width="220" height="370" as="geometry" />
        </mxCell>
        <mxCell id="O1uoHhi7obcJZDUWwfoy-76" value="&lt;b&gt;&lt;font face=&quot;Times New Roman&quot;&gt;ap-southeast-2&lt;/font&gt;&lt;/b&gt;" style="sketch=0;outlineConnect=0;html=1;whiteSpace=wrap;fontSize=8;fontStyle=0;shape=mxgraph.aws4.group;grIcon=mxgraph.aws4.group_region;strokeColor=#6c8ebf;fillColor=#dae8fc;verticalAlign=top;align=left;spacingLeft=30;dashed=1;" vertex="1" parent="1">
          <mxGeometry x="460" y="275" width="228" height="365" as="geometry" />
        </mxCell>
        <mxCell id="O1uoHhi7obcJZDUWwfoy-129" style="edgeStyle=orthogonalEdgeStyle;rounded=0;orthogonalLoop=1;jettySize=auto;html=1;strokeColor=#4D4D4D;fontColor=#393C56;fillColor=#F2CC8F;" edge="1" parent="1" source="O1uoHhi7obcJZDUWwfoy-105" target="O1uoHhi7obcJZDUWwfoy-80">
          <mxGeometry relative="1" as="geometry">
            <Array as="points">
              <mxPoint x="900" y="82" />
            </Array>
          </mxGeometry>
        </mxCell>
        <mxCell id="O1uoHhi7obcJZDUWwfoy-32" value="" style="sketch=0;points=[[0,0,0],[0.25,0,0],[0.5,0,0],[0.75,0,0],[1,0,0],[0,1,0],[0.25,1,0],[0.5,1,0],[0.75,1,0],[1,1,0],[0,0.25,0],[0,0.5,0],[0,0.75,0],[1,0.25,0],[1,0.5,0],[1,0.75,0]];outlineConnect=0;fontColor=#232F3E;fillColor=#8C4FFF;strokeColor=#ffffff;dashed=0;verticalLabelPosition=bottom;verticalAlign=top;align=center;html=1;fontSize=12;fontStyle=0;aspect=fixed;shape=mxgraph.aws4.resourceIcon;resIcon=mxgraph.aws4.route_53;" vertex="1" parent="1">
          <mxGeometry x="585.5" y="61.88" width="40" height="40" as="geometry" />
        </mxCell>
        <mxCell id="O1uoHhi7obcJZDUWwfoy-52" value="&lt;p style=&quot;line-height: 71%;&quot;&gt;&lt;font size=&quot;1&quot; style=&quot;&quot; face=&quot;Times New Roman&quot;&gt;&lt;b style=&quot;font-size: 7px;&quot;&gt;www.trip-tribe.com&lt;/b&gt;&lt;/font&gt;&lt;/p&gt;" style="text;strokeColor=none;align=center;fillColor=none;html=1;verticalAlign=middle;whiteSpace=wrap;rounded=0;fontColor=#393C56;" vertex="1" parent="1">
          <mxGeometry x="568" y="100" width="75" height="20" as="geometry" />
        </mxCell>
        <mxCell id="O1uoHhi7obcJZDUWwfoy-53" value="" style="sketch=0;points=[[0,0,0],[0.25,0,0],[0.5,0,0],[0.75,0,0],[1,0,0],[0,1,0],[0.25,1,0],[0.5,1,0],[0.75,1,0],[1,1,0],[0,0.25,0],[0,0.5,0],[0,0.75,0],[1,0.25,0],[1,0.5,0],[1,0.75,0]];outlineConnect=0;fontColor=#232F3E;fillColor=#8C4FFF;strokeColor=#ffffff;dashed=0;verticalLabelPosition=bottom;verticalAlign=top;align=center;html=1;fontSize=12;fontStyle=0;aspect=fixed;shape=mxgraph.aws4.resourceIcon;resIcon=mxgraph.aws4.cloudfront;" vertex="1" parent="1">
          <mxGeometry x="585.5" y="300" width="40" height="40" as="geometry" />
        </mxCell>
        <mxCell id="O1uoHhi7obcJZDUWwfoy-126" style="edgeStyle=none;rounded=0;orthogonalLoop=1;jettySize=auto;html=1;strokeColor=#4D4D4D;fontColor=#393C56;fillColor=#F2CC8F;" edge="1" parent="1" source="O1uoHhi7obcJZDUWwfoy-55" target="O1uoHhi7obcJZDUWwfoy-69">
          <mxGeometry relative="1" as="geometry" />
        </mxCell>
        <mxCell id="O1uoHhi7obcJZDUWwfoy-127" style="edgeStyle=orthogonalEdgeStyle;rounded=0;orthogonalLoop=1;jettySize=auto;html=1;exitX=0.5;exitY=1;exitDx=0;exitDy=0;strokeColor=#666666;fontColor=#393C56;fillColor=#F2CC8F;" edge="1" parent="1" source="O1uoHhi7obcJZDUWwfoy-55" target="O1uoHhi7obcJZDUWwfoy-72">
          <mxGeometry relative="1" as="geometry">
            <Array as="points">
              <mxPoint x="605" y="370" />
              <mxPoint x="883" y="370" />
            </Array>
          </mxGeometry>
        </mxCell>
        <mxCell id="O1uoHhi7obcJZDUWwfoy-55" value="&lt;p style=&quot;line-height: 71%;&quot;&gt;&lt;font size=&quot;1&quot; style=&quot;&quot; face=&quot;Times New Roman&quot;&gt;&lt;b style=&quot;font-size: 7px;&quot;&gt;Cloudfront&lt;/b&gt;&lt;/font&gt;&lt;/p&gt;" style="text;strokeColor=none;align=center;fillColor=none;html=1;verticalAlign=middle;whiteSpace=wrap;rounded=0;fontColor=#393C56;" vertex="1" parent="1">
          <mxGeometry x="568" y="345" width="75" height="10" as="geometry" />
        </mxCell>
        <mxCell id="O1uoHhi7obcJZDUWwfoy-56" value="" style="sketch=0;points=[[0,0,0],[0.25,0,0],[0.5,0,0],[0.75,0,0],[1,0,0],[0,1,0],[0.25,1,0],[0.5,1,0],[0.75,1,0],[1,1,0],[0,0.25,0],[0,0.5,0],[0,0.75,0],[1,0.25,0],[1,0.5,0],[1,0.75,0]];outlineConnect=0;fontColor=#232F3E;fillColor=#DD344C;strokeColor=#ffffff;dashed=0;verticalLabelPosition=bottom;verticalAlign=top;align=center;html=1;fontSize=12;fontStyle=0;aspect=fixed;shape=mxgraph.aws4.resourceIcon;resIcon=mxgraph.aws4.certificate_manager_3;" vertex="1" parent="1">
          <mxGeometry x="725.5" y="300" width="40" height="40" as="geometry" />
        </mxCell>
        <mxCell id="O1uoHhi7obcJZDUWwfoy-61" value="" style="edgeStyle=none;rounded=0;orthogonalLoop=1;jettySize=auto;html=1;strokeColor=#4D4D4D;fontColor=#393C56;fillColor=#F2CC8F;" edge="1" parent="1" source="O1uoHhi7obcJZDUWwfoy-56" target="O1uoHhi7obcJZDUWwfoy-53">
          <mxGeometry relative="1" as="geometry">
            <mxPoint x="713" y="315" as="sourcePoint" />
          </mxGeometry>
        </mxCell>
        <mxCell id="O1uoHhi7obcJZDUWwfoy-57" value="&lt;p style=&quot;line-height: 71%;&quot;&gt;&lt;b&gt;&lt;font size=&quot;1&quot; style=&quot;&quot; face=&quot;Times New Roman&quot;&gt;&lt;span style=&quot;font-size: 7px;&quot;&gt;AWS&amp;nbsp;&amp;nbsp;&lt;/span&gt;&lt;/font&gt;&lt;span style=&quot;font-family: &amp;quot;Times New Roman&amp;quot;; background-color: initial; font-size: 7px;&quot;&gt;Certificate Manager&lt;/span&gt;&lt;/b&gt;&lt;/p&gt;" style="text;strokeColor=none;align=center;fillColor=none;html=1;verticalAlign=middle;whiteSpace=wrap;rounded=0;fontColor=#393C56;" vertex="1" parent="1">
          <mxGeometry x="708" y="340" width="75" height="20" as="geometry" />
        </mxCell>
        <mxCell id="O1uoHhi7obcJZDUWwfoy-63" style="edgeStyle=none;shape=flexArrow;rounded=0;orthogonalLoop=1;jettySize=auto;html=1;entryX=0;entryY=0.5;entryDx=0;entryDy=0;entryPerimeter=0;strokeColor=#E07A5F;fontColor=#393C56;fillColor=#F2CC8F;" edge="1" parent="1" source="O1uoHhi7obcJZDUWwfoy-56" target="O1uoHhi7obcJZDUWwfoy-56">
          <mxGeometry relative="1" as="geometry" />
        </mxCell>
        <mxCell id="O1uoHhi7obcJZDUWwfoy-67" style="edgeStyle=none;rounded=0;orthogonalLoop=1;jettySize=auto;html=1;exitX=0.5;exitY=1;exitDx=0;exitDy=0;entryX=0.5;entryY=0;entryDx=0;entryDy=0;entryPerimeter=0;strokeColor=#4D4D4D;fontColor=#393C56;fillColor=#F2CC8F;" edge="1" parent="1" source="O1uoHhi7obcJZDUWwfoy-52" target="O1uoHhi7obcJZDUWwfoy-53">
          <mxGeometry relative="1" as="geometry" />
        </mxCell>
        <mxCell id="O1uoHhi7obcJZDUWwfoy-82" style="edgeStyle=none;rounded=0;orthogonalLoop=1;jettySize=auto;html=1;strokeColor=#4D4D4D;fontColor=#393C56;fillColor=#F2CC8F;" edge="1" parent="1" source="O1uoHhi7obcJZDUWwfoy-69" target="O1uoHhi7obcJZDUWwfoy-72">
          <mxGeometry relative="1" as="geometry" />
        </mxCell>
        <mxCell id="O1uoHhi7obcJZDUWwfoy-69" value="" style="sketch=0;outlineConnect=0;fontColor=#232F3E;gradientColor=none;strokeColor=#FFFFFF;fillColor=#00FF00;dashed=0;verticalLabelPosition=middle;verticalAlign=bottom;align=center;html=1;whiteSpace=wrap;fontSize=10;fontStyle=1;spacing=3;shape=mxgraph.aws4.productIcon;prIcon=mxgraph.aws4.s3;" vertex="1" parent="1">
          <mxGeometry x="585.5" y="435" width="40" height="40" as="geometry" />
        </mxCell>
        <mxCell id="O1uoHhi7obcJZDUWwfoy-95" style="edgeStyle=none;rounded=0;orthogonalLoop=1;jettySize=auto;html=1;strokeColor=#4D4D4D;fontColor=#393C56;fillColor=#F2CC8F;" edge="1" parent="1" source="O1uoHhi7obcJZDUWwfoy-71" target="O1uoHhi7obcJZDUWwfoy-93">
          <mxGeometry relative="1" as="geometry" />
        </mxCell>
        <mxCell id="O1uoHhi7obcJZDUWwfoy-71" value="&lt;p style=&quot;line-height: 50%;&quot;&gt;&lt;font face=&quot;Times New Roman&quot; style=&quot;font-size: 6px;&quot;&gt;&lt;b&gt;S3 Bucket&amp;nbsp;&lt;br&gt;ap-southeast-2&lt;/b&gt;&lt;/font&gt;&lt;/p&gt;" style="text;strokeColor=none;align=center;fillColor=none;html=1;verticalAlign=middle;whiteSpace=wrap;rounded=0;spacing=1;" vertex="1" parent="1">
          <mxGeometry x="565.5" y="475" width="80" height="20" as="geometry" />
        </mxCell>
        <mxCell id="O1uoHhi7obcJZDUWwfoy-72" value="" style="sketch=0;outlineConnect=0;fontColor=#232F3E;gradientColor=none;strokeColor=#ffffff;fillColor=#00FF80;dashed=0;verticalLabelPosition=middle;verticalAlign=bottom;align=center;html=1;whiteSpace=wrap;fontSize=10;fontStyle=1;spacing=3;shape=mxgraph.aws4.productIcon;prIcon=mxgraph.aws4.s3;" vertex="1" parent="1">
          <mxGeometry x="863" y="437.5" width="40" height="40" as="geometry" />
        </mxCell>
        <mxCell id="O1uoHhi7obcJZDUWwfoy-74" value="&lt;p style=&quot;line-height: 50%;&quot;&gt;&lt;font face=&quot;Times New Roman&quot; style=&quot;font-size: 6px;&quot;&gt;&lt;b&gt;S3 Bucket&amp;nbsp;&lt;br&gt;ap-southeast-1&lt;/b&gt;&lt;/font&gt;&lt;/p&gt;" style="text;strokeColor=none;align=center;fillColor=none;html=1;verticalAlign=middle;whiteSpace=wrap;rounded=0;spacing=1;" vertex="1" parent="1">
          <mxGeometry x="843" y="477.5" width="80" height="20" as="geometry" />
        </mxCell>
        <mxCell id="O1uoHhi7obcJZDUWwfoy-84" value="&lt;p style=&quot;line-height: 71%;&quot;&gt;&lt;font size=&quot;1&quot; face=&quot;Times New Roman&quot;&gt;&lt;b style=&quot;font-size: 8px;&quot;&gt;Synchronization&lt;/b&gt;&lt;/font&gt;&lt;br&gt;&lt;/p&gt;" style="text;strokeColor=none;align=center;fillColor=none;html=1;verticalAlign=middle;whiteSpace=wrap;rounded=0;fontColor=#393C56;" vertex="1" parent="1">
          <mxGeometry x="715.5" y="440" width="50" height="20" as="geometry" />
        </mxCell>
        <mxCell id="O1uoHhi7obcJZDUWwfoy-92" value="&lt;p style=&quot;line-height: 0%;&quot;&gt;&lt;font style=&quot;font-size: 12px;&quot; face=&quot;Times New Roman&quot; color=&quot;#ff3333&quot;&gt;&lt;b style=&quot;&quot;&gt;Cloudfront&lt;/b&gt;&lt;/font&gt;&lt;/p&gt;&lt;p style=&quot;line-height: 0%;&quot;&gt;&lt;font style=&quot;font-size: 12px;&quot; color=&quot;#ff3333&quot; face=&quot;Times New Roman&quot;&gt;&lt;b style=&quot;&quot;&gt;Origin Failover&lt;/b&gt;&lt;/font&gt;&lt;/p&gt;" style="text;strokeColor=none;align=center;fillColor=none;html=1;verticalAlign=middle;whiteSpace=wrap;rounded=0;fontColor=#393C56;" vertex="1" parent="1">
          <mxGeometry x="683" y="406" width="115" height="16" as="geometry" />
        </mxCell>
        <mxCell id="O1uoHhi7obcJZDUWwfoy-93" value="" style="sketch=0;outlineConnect=0;fontColor=#232F3E;gradientColor=none;strokeColor=#ffffff;fillColor=#00FF80;dashed=0;verticalLabelPosition=middle;verticalAlign=bottom;align=center;html=1;whiteSpace=wrap;fontSize=10;fontStyle=1;spacing=3;shape=mxgraph.aws4.productIcon;prIcon=mxgraph.aws4.s3;" vertex="1" parent="1">
          <mxGeometry x="585.5" y="530" width="40" height="40" as="geometry" />
        </mxCell>
        <mxCell id="O1uoHhi7obcJZDUWwfoy-94" value="&lt;p style=&quot;line-height: 50%;&quot;&gt;&lt;font face=&quot;Times New Roman&quot;&gt;&lt;span style=&quot;font-size: 6px;&quot;&gt;&lt;b&gt;Logging bucket&lt;/b&gt;&lt;/span&gt;&lt;/font&gt;&lt;/p&gt;" style="text;strokeColor=none;align=center;fillColor=none;html=1;verticalAlign=middle;whiteSpace=wrap;rounded=0;spacing=1;" vertex="1" parent="1">
          <mxGeometry x="560.5" y="570" width="80" height="20" as="geometry" />
        </mxCell>
        <mxCell id="O1uoHhi7obcJZDUWwfoy-101" value="&lt;p style=&quot;line-height: 71%;&quot;&gt;&lt;font face=&quot;Times New Roman&quot;&gt;&lt;span style=&quot;font-size: 7px;&quot;&gt;&lt;b&gt;Store S3 access logs in logging bucket&lt;/b&gt;&lt;/span&gt;&lt;/font&gt;&lt;/p&gt;" style="text;strokeColor=none;align=center;fillColor=none;html=1;verticalAlign=middle;whiteSpace=wrap;rounded=0;fontColor=#393C56;" vertex="1" parent="1">
          <mxGeometry x="493" y="550" width="75" height="20" as="geometry" />
        </mxCell>
        <mxCell id="O1uoHhi7obcJZDUWwfoy-112" style="edgeStyle=none;rounded=0;orthogonalLoop=1;jettySize=auto;html=1;strokeColor=#4D4D4D;fontColor=#393C56;fillColor=#F2CC8F;" edge="1" parent="1" source="O1uoHhi7obcJZDUWwfoy-105" target="O1uoHhi7obcJZDUWwfoy-111">
          <mxGeometry relative="1" as="geometry" />
        </mxCell>
        <mxCell id="O1uoHhi7obcJZDUWwfoy-106" style="edgeStyle=none;rounded=0;orthogonalLoop=1;jettySize=auto;html=1;strokeColor=#4D4D4D;fontColor=#393C56;fillColor=#F2CC8F;entryX=0;entryY=0.5;entryDx=0;entryDy=0;entryPerimeter=0;" edge="1" parent="1" source="O1uoHhi7obcJZDUWwfoy-32" target="O1uoHhi7obcJZDUWwfoy-105">
          <mxGeometry relative="1" as="geometry">
            <mxPoint x="870" y="82" as="targetPoint" />
          </mxGeometry>
        </mxCell>
        <mxCell id="O1uoHhi7obcJZDUWwfoy-107" value="&lt;p style=&quot;line-height: 71%;&quot;&gt;&lt;font face=&quot;Times New Roman&quot;&gt;&lt;span style=&quot;font-size: 7px;&quot;&gt;&lt;b&gt;www.trip-tribe.com/index.html&lt;/b&gt;&lt;/span&gt;&lt;/font&gt;&lt;/p&gt;" style="text;strokeColor=none;align=center;fillColor=none;html=1;verticalAlign=middle;whiteSpace=wrap;rounded=0;fontColor=#393C56;" vertex="1" parent="1">
          <mxGeometry x="848" y="40" width="120" height="20" as="geometry" />
        </mxCell>
        <mxCell id="O1uoHhi7obcJZDUWwfoy-108" value="&lt;p style=&quot;line-height: 71%;&quot;&gt;&lt;font face=&quot;Times New Roman&quot;&gt;&lt;span style=&quot;font-size: 7px;&quot;&gt;&lt;b&gt;DNS Healthcheck&lt;/b&gt;&lt;/span&gt;&lt;/font&gt;&lt;/p&gt;" style="text;strokeColor=none;align=center;fillColor=none;html=1;verticalAlign=middle;whiteSpace=wrap;rounded=0;fontColor=#393C56;" vertex="1" parent="1">
          <mxGeometry x="700" y="52.5" width="75" height="20" as="geometry" />
        </mxCell>
        <mxCell id="O1uoHhi7obcJZDUWwfoy-110" value="&lt;p style=&quot;line-height: 71%;&quot;&gt;&lt;font face=&quot;Times New Roman&quot;&gt;&lt;span style=&quot;font-size: 7px;&quot;&gt;&lt;b&gt;DNS Failover&lt;/b&gt;&lt;/span&gt;&lt;/font&gt;&lt;/p&gt;" style="text;strokeColor=none;align=center;fillColor=none;html=1;verticalAlign=middle;whiteSpace=wrap;rounded=0;fontColor=#393C56;" vertex="1" parent="1">
          <mxGeometry x="828" y="150" width="75" height="20" as="geometry" />
        </mxCell>
        <mxCell id="O1uoHhi7obcJZDUWwfoy-111" value="" style="sketch=0;outlineConnect=0;fontColor=#232F3E;gradientColor=none;strokeColor=#ffffff;fillColor=#EA6B66;dashed=0;verticalLabelPosition=middle;verticalAlign=bottom;align=center;html=1;whiteSpace=wrap;fontSize=10;fontStyle=1;spacing=3;shape=mxgraph.aws4.productIcon;prIcon=mxgraph.aws4.cloudwatch;aspect=fixed;" vertex="1" parent="1">
          <mxGeometry x="1033" y="52.5" width="40" height="55" as="geometry" />
        </mxCell>
        <mxCell id="O1uoHhi7obcJZDUWwfoy-116" style="edgeStyle=none;rounded=0;orthogonalLoop=1;jettySize=auto;html=1;strokeColor=#4D4D4D;fontColor=#393C56;fillColor=#F2CC8F;" edge="1" parent="1" source="O1uoHhi7obcJZDUWwfoy-113" target="O1uoHhi7obcJZDUWwfoy-114">
          <mxGeometry relative="1" as="geometry" />
        </mxCell>
        <mxCell id="O1uoHhi7obcJZDUWwfoy-113" value="&lt;p style=&quot;line-height: 71%;&quot;&gt;&lt;font face=&quot;Times New Roman&quot;&gt;&lt;span style=&quot;font-size: 7px;&quot;&gt;&lt;b&gt;Cloudwatch&lt;/b&gt;&lt;/span&gt;&lt;/font&gt;&lt;/p&gt;" style="text;strokeColor=none;align=center;fillColor=none;html=1;verticalAlign=middle;whiteSpace=wrap;rounded=0;fontColor=#393C56;" vertex="1" parent="1">
          <mxGeometry x="1015.5" y="89.38" width="75" height="20" as="geometry" />
        </mxCell>
        <mxCell id="O1uoHhi7obcJZDUWwfoy-118" style="edgeStyle=none;rounded=0;orthogonalLoop=1;jettySize=auto;html=1;strokeColor=#666666;fontColor=#393C56;fillColor=#F2CC8F;" edge="1" parent="1" source="O1uoHhi7obcJZDUWwfoy-114">
          <mxGeometry relative="1" as="geometry">
            <mxPoint x="1113" y="160" as="targetPoint" />
          </mxGeometry>
        </mxCell>
        <mxCell id="O1uoHhi7obcJZDUWwfoy-114" value="" style="sketch=0;outlineConnect=0;fontColor=#232F3E;gradientColor=none;fillColor=#E7157B;strokeColor=none;dashed=0;verticalLabelPosition=bottom;verticalAlign=top;align=center;html=1;fontSize=12;fontStyle=0;aspect=fixed;pointerEvents=1;shape=mxgraph.aws4.alarm;" vertex="1" parent="1">
          <mxGeometry x="1033" y="140" width="40" height="40" as="geometry" />
        </mxCell>
        <mxCell id="O1uoHhi7obcJZDUWwfoy-115" value="&lt;p style=&quot;line-height: 71%;&quot;&gt;&lt;font face=&quot;Times New Roman&quot;&gt;&lt;span style=&quot;font-size: 7px;&quot;&gt;&lt;b&gt;Cloudwatch Alarm&lt;/b&gt;&lt;/span&gt;&lt;/font&gt;&lt;/p&gt;" style="text;strokeColor=none;align=center;fillColor=none;html=1;verticalAlign=middle;whiteSpace=wrap;rounded=0;fontColor=#393C56;" vertex="1" parent="1">
          <mxGeometry x="1018" y="180" width="75" height="20" as="geometry" />
        </mxCell>
        <mxCell id="O1uoHhi7obcJZDUWwfoy-105" value="" style="verticalLabelPosition=bottom;html=1;verticalAlign=top;align=center;strokeColor=none;fillColor=#00BEF2;shape=mxgraph.azure.website_generic;pointerEvents=1;fontColor=#393C56;" vertex="1" parent="1">
          <mxGeometry x="880" y="60" width="40" height="40" as="geometry" />
        </mxCell>
        <mxCell id="O1uoHhi7obcJZDUWwfoy-135" value="" style="sketch=0;outlineConnect=0;fontColor=#232F3E;gradientColor=none;fillColor=#E7157B;strokeColor=none;dashed=0;verticalLabelPosition=bottom;verticalAlign=top;align=center;html=1;fontSize=12;fontStyle=0;aspect=fixed;pointerEvents=1;shape=mxgraph.aws4.email_notification;" vertex="1" parent="1">
          <mxGeometry x="1120" y="140" width="40" height="40" as="geometry" />
        </mxCell>
        <mxCell id="O1uoHhi7obcJZDUWwfoy-89" value="" style="rounded=0;whiteSpace=wrap;html=1;strokeColor=#E01E09;fontColor=#393C56;fillColor=none;dashed=1;" vertex="1" parent="1">
          <mxGeometry x="473" y="400" width="490" height="190" as="geometry" />
        </mxCell>
      </root>
    </mxGraphModel>
  </diagram>
</mxfile>
